<svg version="1.1" id="Layer_1" xmlns="http://www.w3.org/2000/svg" xmlns:xlink="http://www.w3.org/1999/xlink" x="0px" y="0px"
	 width="100%" viewBox="0 0 500 500" enable-background="new 0 0 500 500" xml:space="preserve">
<path fill="#000000" opacity="1.000000" stroke="none" 
	d="
M1.000000,128.000000 
	C1.000000,85.343864 1.000000,43.187725 1.000000,1.015792 
	C167.614517,1.015792 334.229034,1.015792 500.921783,1.015792 
	C500.921783,167.572876 500.921783,334.145782 500.921783,500.859375 
	C334.333405,500.859375 167.666733,500.859375 1.000000,500.859375 
	C1.000000,376.770844 1.000000,252.635422 1.000000,128.000000 
M387.993835,145.273453 
	C387.695618,144.200790 387.397369,143.128113 387.987885,142.009338 
	C392.216400,142.341034 396.443665,142.939270 400.673645,142.959351 
	C421.557495,143.058411 442.443634,142.872284 463.325073,143.116333 
	C467.482361,143.164932 470.252136,142.493118 471.771149,138.005600 
	C473.226959,137.015579 474.682739,136.025543 476.856201,135.000076 
	C479.101196,133.348816 481.346222,131.697571 483.591217,130.046310 
	C483.298248,129.522583 483.005310,128.998856 482.712372,128.475113 
	C480.656433,128.656265 478.600494,128.837418 475.552948,128.835037 
	C464.609100,129.112915 453.665771,129.415405 442.721252,129.663239 
	C422.827515,130.113739 402.933044,130.531784 383.006042,130.115585 
	C382.998901,128.701080 382.991730,127.286575 383.821259,125.660362 
	C389.649292,125.450676 395.476471,125.212448 401.305511,125.036224 
	C426.785461,124.265915 452.265900,123.513611 478.599823,122.912621 
	C480.013733,122.076195 482.662994,121.207085 482.641876,120.408615 
	C482.500519,115.065514 481.790253,109.737457 481.270477,103.168304 
	C479.681305,78.908234 478.115997,54.646526 476.455841,30.391315 
	C476.328247,28.527143 475.531769,26.708757 474.747589,24.188189 
	C471.565704,23.728247 468.380524,22.844864 465.202362,22.869381 
	C336.641541,23.861109 208.081299,24.926277 79.521194,26.008640 
	C63.201614,26.146036 46.883579,26.466190 30.564013,26.605923 
	C27.846441,26.629190 25.829041,26.922682 26.225618,31.310318 
	C24.904400,45.561855 23.484152,59.805103 22.289511,74.067238 
	C21.068071,88.649284 20.067890,103.249847 18.246998,118.267921 
	C17.769024,124.113304 17.291048,129.958694 16.791185,136.071762 
	C42.067291,135.348663 66.478691,134.653702 90.888939,133.920258 
	C91.263519,133.908997 91.623810,133.422470 92.923805,133.027924 
	C97.826752,133.216873 102.729698,133.405823 108.115425,133.904953 
	C111.444901,134.824829 116.844864,131.945450 116.068161,138.967545 
	C97.749031,139.541916 79.433357,140.318207 61.109760,140.630890 
	C44.530499,140.913788 27.942606,140.690643 10.669120,140.690643 
	C12.585098,118.348396 14.495612,96.069870 16.721136,73.334740 
	C17.984529,58.760017 19.247923,44.185295 20.591192,28.689096 
	C15.876328,29.685698 13.061110,31.252323 12.123613,35.979832 
	C8.743170,35.556469 7.746744,37.259975 7.971907,40.369358 
	C8.695113,50.356438 9.906331,60.353809 9.845486,70.340614 
	C9.767377,83.160980 8.806165,95.986717 7.909190,108.787979 
	C7.178451,119.216789 5.770506,129.598862 5.075403,140.029160 
	C4.679919,145.963531 6.994312,148.095917 12.916701,147.971817 
	C22.654934,147.767746 32.389458,147.365952 42.123699,146.998688 
	C49.865108,146.706635 57.600800,146.206116 65.344254,146.036896 
	C82.224838,145.667984 99.108742,145.451233 115.992073,145.926712 
	C114.812340,149.974869 113.632607,154.023010 111.729424,158.587601 
	C106.417183,158.814484 101.104424,159.030136 95.792885,159.272385 
	C92.506775,159.422241 91.058495,160.721268 92.882751,164.725937 
	C93.560562,165.783005 94.238380,166.840073 94.283348,168.333176 
	C94.854691,177.838028 95.527077,187.338150 95.970520,196.848969 
	C96.469826,207.557877 96.762817,218.276382 96.824440,229.604141 
	C96.541428,230.413010 96.258408,231.221863 95.640259,232.481430 
	C95.706039,233.356491 95.771820,234.231537 95.883911,235.981064 
	C97.700409,236.293259 99.530350,236.940094 101.331413,236.867813 
	C131.442139,235.659134 161.550537,234.390015 191.656769,233.072525 
	C214.772476,232.060944 237.884399,230.963181 261.917267,230.056900 
	C282.374146,229.097168 302.827118,228.041229 323.288910,227.201462 
	C350.397186,226.088898 377.513702,225.175842 404.621216,224.046219 
	C406.100525,223.984573 407.529755,222.721664 409.192719,221.260223 
	C409.040375,220.505356 408.888031,219.750473 408.771118,218.296295 
	C408.417358,217.215652 408.063629,216.135010 407.675354,214.210052 
	C407.454865,213.617035 407.056488,213.028900 407.040039,212.430267 
	C406.668884,198.926895 406.493988,185.415939 405.931793,171.921005 
	C405.682800,165.944244 404.666138,159.999451 404.699615,153.858322 
	C405.044708,152.599701 405.389801,151.341080 405.953094,149.367950 
	C405.006897,148.265396 404.060669,147.162827 402.645844,145.954742 
	C402.180817,146.031921 401.715759,146.109100 400.330139,146.464005 
	C396.236237,146.539719 392.142303,146.615448 388.055573,146.325928 
	C388.055573,146.325928 387.985229,145.967484 387.993835,145.273453 
M483.927277,52.717392 
	C484.410522,59.904667 484.893768,67.091942 485.432861,75.109711 
	C486.285065,73.902580 486.852509,73.450562 486.945068,72.916245 
	C489.307861,59.279682 491.593445,45.629745 493.957489,31.993406 
	C494.805695,27.100594 493.165436,25.009542 488.225098,24.992413 
	C486.280273,24.985670 484.335358,24.991308 481.882568,24.991308 
	C482.576385,34.291882 483.228821,43.037525 483.927277,52.717392 
z"/>
<path fill="#FD3131" opacity="1.000000" stroke="none" 
	d="
M477.746185,122.754761 
	C452.265900,123.513611 426.785461,124.265915 401.305511,125.036224 
	C395.476471,125.212448 389.649292,125.450676 383.382385,125.414246 
	C382.938019,124.461006 382.932556,123.753876 383.394348,122.990082 
	C388.821442,122.560226 393.908081,122.758041 398.714111,121.691498 
	C407.884308,119.656471 411.426483,114.474899 410.849365,105.124725 
	C410.152313,93.832161 409.459534,82.536659 408.528046,71.262001 
	C407.618744,60.256393 405.958374,58.768471 394.731903,58.259644 
	C392.261688,58.147686 389.738678,58.392223 387.288727,58.780266 
	C376.493439,60.490067 369.727539,66.968079 368.725342,77.817650 
	C368.249329,82.971069 368.976501,88.487122 370.367371,93.503769 
	C372.563843,101.426224 378.618927,105.304108 386.879456,105.259888 
	C389.465332,105.246048 392.049805,104.968140 394.639008,104.810852 
	C394.738556,111.437744 394.696838,111.448433 377.083832,109.748238 
	C373.796814,116.845352 375.066406,120.958855 381.137299,123.229630 
	C381.134125,124.233643 381.135193,124.903275 380.662842,125.634796 
	C304.068390,127.824699 227.946869,129.938202 151.826538,132.093338 
	C137.092880,132.510468 122.363823,133.090103 107.632645,133.594788 
	C102.729698,133.405823 97.826752,133.216873 92.040436,133.008759 
	C89.239906,132.658890 87.327393,132.071899 85.404892,132.037155 
	C66.175117,131.689606 46.943993,131.287079 27.712549,131.248337 
	C22.595634,131.238037 20.439226,129.350815 20.280235,124.376137 
	C20.210253,122.186478 19.429111,120.019554 18.970854,117.842308 
	C20.067890,103.249847 21.068071,88.649284 22.289511,74.067238 
	C23.484152,59.805103 24.904400,45.561855 26.784594,30.847513 
	C28.342842,30.389542 29.342283,30.408754 30.341368,30.397167 
	C155.932465,28.940077 281.523773,27.498484 407.114441,26.005131 
	C429.759644,25.735865 452.402344,25.253218 475.046204,24.869087 
	C475.531769,26.708757 476.328247,28.527143 476.455841,30.391315 
	C478.115997,54.646526 479.681305,78.908234 481.179535,103.984413 
	C479.974457,110.785263 478.860321,116.770012 477.746185,122.754761 
M150.046616,85.386131 
	C149.698975,80.069153 149.414856,74.747108 148.991043,69.436211 
	C147.970016,56.641781 151.145630,57.259350 135.362640,58.092739 
	C131.430038,58.300392 129.377792,59.828457 129.949646,64.336159 
	C130.670853,70.021072 130.756531,75.786621 131.145187,81.976044 
	C126.502838,81.976044 122.608147,81.976044 118.356476,81.976044 
	C118.133545,78.340462 117.976082,74.874809 117.699257,71.418724 
	C116.690346,58.822601 115.687042,58.092052 103.083885,60.149483 
	C99.860046,60.675762 98.272469,61.733860 98.597878,65.626785 
	C99.901520,81.222298 100.820107,96.850555 101.824921,112.470314 
	C102.653221,125.346245 103.244026,125.836685 116.227974,123.695610 
	C116.392303,123.668518 116.554886,123.622849 116.720123,123.610367 
	C119.928070,123.367943 121.323616,121.972343 120.924034,118.463348 
	C120.271477,112.732880 120.094223,106.948288 119.702667,100.976395 
	C122.295677,100.690811 124.261116,100.390495 126.237137,100.280479 
	C128.182114,100.172188 130.137833,100.256859 132.500015,100.256859 
	C132.700317,103.623962 132.913223,106.752853 133.068100,109.884621 
	C133.726852,123.206055 134.821014,124.052864 148.108353,121.449493 
	C148.271759,121.417473 148.432846,121.351448 148.596481,121.346130 
	C151.659607,121.246567 152.386749,119.586739 152.162399,116.727669 
	C151.367874,106.602325 150.764786,96.461960 150.046616,85.386131 
M281.645233,95.812210 
	C280.939087,94.684563 280.378113,93.426239 279.501282,92.452255 
	C276.007172,88.571007 276.087341,84.878265 278.970856,80.494492 
	C281.827301,76.151848 283.885193,71.283936 286.597412,66.060806 
	C282.735870,66.060806 279.920532,66.087929 277.105835,66.054741 
	C272.343414,65.998596 268.941620,67.586372 267.342102,72.596046 
	C266.193848,76.192421 264.175690,79.511063 262.545624,82.953606 
	C262.193604,82.856956 261.841583,82.760315 261.489594,82.663666 
	C260.723724,71.792458 259.957855,60.921242 259.143372,49.359837 
	C254.875107,49.557362 251.111435,49.803360 247.344193,49.884911 
	C243.839218,49.960785 242.923843,51.615299 243.218384,55.000050 
	C244.054855,64.613388 244.551102,74.255951 245.222687,83.884125 
	C245.937271,94.128647 246.699265,104.369858 247.492523,115.330688 
	C252.980652,114.924049 257.968964,114.554443 263.328766,114.157310 
	C262.933563,107.196976 262.589722,101.141281 262.245880,95.085587 
	C265.659912,99.879036 268.231079,105.036644 271.132629,110.001175 
	C271.913086,111.336540 273.689026,112.937889 275.023529,112.952065 
	C280.257996,113.007652 285.498657,112.477715 291.751312,112.104767 
	C288.106720,106.241989 285.060730,101.342110 281.645233,95.812210 
M337.198761,63.633175 
	C335.537231,64.650940 333.875732,65.668701 332.222046,66.681671 
	C328.347595,64.058601 324.015533,60.841637 319.928619,64.034790 
	C317.642151,65.821205 316.957977,70.327225 316.594757,73.719482 
	C316.226318,77.160484 318.171417,79.757774 322.532745,79.386650 
	C323.085999,88.182709 323.517395,96.636299 324.245483,105.064240 
	C324.368347,106.486610 325.666382,108.886475 326.599243,108.975708 
	C330.968689,109.393669 335.400360,109.161369 340.271606,109.161369 
	C339.666229,99.496185 339.343079,91.033775 338.511475,82.621628 
	C338.158966,79.056274 339.135834,77.011581 342.612885,76.720444 
	C346.369873,76.405869 346.173737,79.514259 346.367645,81.915993 
	C346.969940,89.374352 347.322418,96.855331 348.075470,104.296799 
	C348.208557,105.612045 349.769531,107.808136 350.725922,107.837921 
	C354.951904,107.969536 359.197906,107.458214 364.083374,107.137177 
	C363.033722,95.105858 362.504028,83.827095 360.932495,72.695419 
	C359.710449,64.039116 353.789642,60.267262 345.113312,61.404381 
	C342.668549,61.724796 340.297974,62.611118 337.198761,63.633175 
M174.104797,89.711159 
	C167.049561,90.323341 160.353867,91.694580 157.917496,99.643745 
	C154.225891,111.688309 164.369263,122.976166 176.680893,120.322266 
	C180.398758,119.520844 183.823410,117.359169 187.675186,115.693985 
	C190.568054,118.553467 195.039673,120.936165 198.804214,118.346161 
	C201.231354,116.676300 202.084045,111.903603 202.530548,108.380585 
	C203.058746,104.213066 200.006302,102.398140 196.113388,102.472328 
	C195.407852,95.844521 195.025436,89.530022 193.988739,83.324821 
	C193.063492,77.786652 189.694778,73.387268 183.894394,73.194817 
	C177.698517,72.989235 171.428589,74.122765 165.238083,75.002876 
	C161.847580,75.484909 161.162399,78.179604 161.984467,81.084900 
	C162.551086,83.087402 163.644470,84.940865 164.464569,86.776245 
	C168.030029,86.116234 171.104813,85.208481 174.203995,85.115837 
	C175.759552,85.069336 177.359467,86.506195 178.939316,87.272209 
	C177.611237,88.053398 176.283142,88.834587 174.104797,89.711159 
M219.294708,70.513168 
	C209.314972,74.220985 205.601486,82.166870 205.291794,92.019440 
	C204.682510,111.403793 220.099854,122.519424 236.965103,114.920052 
	C238.482605,114.236275 240.525909,112.173645 240.419174,110.912659 
	C240.110306,107.263199 238.828796,103.696053 237.914185,100.037025 
	C225.936996,104.115601 221.245514,101.111526 222.096558,90.807541 
	C222.640610,84.220436 226.127487,82.673004 231.759338,86.278618 
	C233.038635,87.097649 236.211823,87.496254 236.314651,87.232170 
	C237.723358,83.614853 239.625366,79.821144 239.515991,76.126740 
	C239.455582,74.085396 236.118027,70.900200 233.810852,70.431763 
	C229.389313,69.534012 224.649017,70.206207 219.294708,70.513168 
M309.138489,65.073311 
	C303.909943,65.073311 298.681396,65.073311 292.989349,65.073311 
	C294.091461,81.299232 295.100830,96.159851 296.161774,111.779305 
	C301.858276,111.403519 307.204346,111.050850 312.979218,110.669891 
	C311.885284,95.165649 310.846466,80.442635 309.138489,65.073311 
M303.417267,45.949795 
	C299.679565,46.288635 295.941833,46.627476 291.762360,47.006363 
	C292.157318,52.069149 292.498077,56.437119 292.879639,61.327938 
	C298.721008,60.853638 303.916229,60.431801 308.909546,60.026360 
	C308.909546,56.086327 308.759338,52.931728 308.949341,49.797756 
	C309.164246,46.253250 307.324585,45.503593 303.417267,45.949795 
z"/>
<path fill="#F28585" opacity="1.000000" stroke="none" 
	d="
M97.145546,228.990723 
	C96.762817,218.276382 96.469826,207.557877 95.970520,196.848969 
	C95.527077,187.338150 94.854691,177.838028 95.011581,168.139725 
	C105.617897,167.291489 115.489151,166.496796 125.375633,166.013885 
	C141.205856,165.240631 157.044312,164.622391 172.883209,164.046738 
	C178.842911,163.830109 184.823883,164.118820 190.776917,163.817093 
	C201.321304,163.282639 211.843826,162.294159 222.390167,161.826935 
	C233.644455,161.328323 244.916306,161.233032 256.178497,160.894989 
	C257.131683,160.866364 258.069794,160.333710 259.261719,160.368591 
	C271.331360,160.119492 283.154205,159.537018 295.444000,158.965240 
	C307.361206,158.644989 318.811432,158.314941 330.261536,157.979935 
	C330.759796,157.965347 331.256409,157.900116 331.754364,157.866959 
	C342.300110,157.164413 352.837189,156.245956 363.394104,155.818085 
	C375.809326,155.314911 388.242340,155.259628 400.665771,154.937927 
	C401.783508,154.908997 402.887543,154.351929 403.997955,154.040131 
	C404.666138,159.999451 405.682800,165.944244 405.931793,171.921005 
	C406.493988,185.415939 406.668884,198.926895 407.040039,212.430267 
	C407.056488,213.028900 407.454865,213.617035 407.359924,214.793488 
	C396.321716,216.247040 385.611206,217.336731 374.873322,217.935059 
	C359.312378,218.802155 343.733154,219.352219 328.158936,219.966675 
	C312.561737,220.582016 296.961761,221.129303 281.361755,221.670868 
	C268.297333,222.124405 255.225876,222.406647 242.166931,222.979019 
	C221.266006,223.895157 200.375641,225.051620 179.475235,225.980927 
	C168.901657,226.451065 158.313690,226.587219 147.736099,226.978973 
	C130.870880,227.603653 114.008896,228.315659 97.145546,228.990723 
M252.163452,181.211121 
	C248.706940,176.392853 244.732391,180.310562 240.472229,179.743607 
	C243.130829,190.268051 245.553909,199.922745 248.035522,209.562408 
	C248.228775,210.313049 248.834290,211.561249 249.243469,211.559341 
	C253.366592,211.540268 257.587006,211.750610 261.551971,210.869751 
	C262.759216,210.601532 263.430298,207.211609 264.039795,205.160156 
	C264.650452,203.104874 264.877472,200.935593 265.485352,197.675400 
	C266.472839,200.329590 267.146027,201.813934 267.581909,203.364960 
	C269.845520,211.419495 269.824432,211.425293 278.401672,210.361572 
	C279.392883,210.238617 280.536652,210.384933 281.337280,209.928543 
	C282.343628,209.354874 283.682037,208.378036 283.821564,207.421280 
	C285.277039,197.439850 286.520569,187.427521 287.884430,176.950760 
	C285.842773,176.950760 284.197510,177.108154 282.592285,176.921478 
	C277.642609,176.345825 275.704041,178.308807 276.021515,183.388657 
	C276.270996,187.380875 275.604492,191.430344 275.344879,195.454361 
	C272.807678,190.766968 271.137451,186.092911 269.852600,181.315216 
	C269.087769,178.471252 267.577301,177.702179 264.837860,178.015976 
	C262.297302,178.307007 260.052917,178.169037 259.609192,181.780869 
	C258.941193,187.218658 257.649994,192.579895 256.623688,197.973663 
	C256.290436,197.938873 255.957230,197.904083 255.623993,197.869293 
	C254.533981,192.596542 253.443954,187.323776 252.163452,181.211121 
M314.962555,174.913956 
	C311.870636,175.305588 308.503784,175.068115 305.764038,176.265518 
	C303.014862,177.467041 301.098633,178.304016 298.190857,176.506744 
	C295.933807,175.111694 292.328491,174.988312 291.547424,178.301453 
	C290.917938,180.971802 291.888916,184.123718 292.575531,186.958862 
	C292.955719,188.528732 294.778931,189.816650 294.968628,191.353012 
	C295.654236,196.906082 295.923126,202.510590 296.392303,208.658768 
	C300.200134,208.476883 303.592346,208.314835 307.423645,208.131821 
	C307.014465,202.151596 306.646942,196.700394 306.266144,191.250122 
	C306.093201,188.775177 305.410980,185.631027 309.107605,185.802322 
	C310.132996,185.849854 311.583527,189.125854 311.837372,191.052612 
	C312.546387,196.434036 312.730927,201.884567 313.164337,207.887924 
	C317.034790,207.557526 320.394775,207.270706 324.334442,206.934387 
	C323.564026,198.459518 322.960876,190.526184 322.072784,182.624863 
	C321.654053,178.899384 319.593994,176.149582 314.962555,174.913956 
M222.892685,180.622940 
	C215.359924,181.804520 211.251846,185.133881 209.907700,191.698776 
	C208.354340,199.285583 209.261978,206.449249 215.682755,211.642929 
	C221.265900,216.159088 231.202988,215.010818 235.635605,209.467621 
	C240.656464,203.188782 240.125809,196.045074 237.497787,189.117416 
	C235.185699,183.022552 230.201263,180.319519 222.892685,180.622940 
M203.925369,191.839279 
	C209.746033,189.790939 205.725769,186.084229 205.879990,182.911621 
	C203.639175,182.806885 201.857986,182.723633 200.031143,182.638245 
	C199.616745,180.509949 199.241135,178.580826 198.880646,176.729355 
	C190.335098,175.200562 188.606522,176.267822 187.714661,182.853271 
	C186.231461,184.449966 184.409439,186.358215 184.567078,188.085831 
	C184.758514,190.183914 186.619751,192.129623 187.758575,194.141266 
	C188.276123,193.936432 188.793686,193.731598 189.311249,193.526764 
	C189.864319,200.917557 190.417374,208.308334 190.993927,216.013184 
	C193.585999,216.013184 195.727722,215.943924 197.863342,216.028519 
	C201.582336,216.175858 203.308807,215.035751 202.670013,210.786392 
	C201.881760,205.542923 201.743134,200.192108 201.538757,194.879410 
	C201.501602,193.913895 202.496643,192.908661 203.925369,191.839279 
z"/>
<path fill="#DAD3D0" opacity="1.000000" stroke="none" 
	d="
M115.991295,145.172302 
	C99.108742,145.451233 82.224838,145.667984 65.344254,146.036896 
	C57.600800,146.206116 49.865108,146.706635 42.123699,146.998688 
	C32.389458,147.365952 22.654934,147.767746 12.916701,147.971817 
	C6.994312,148.095917 4.679919,145.963531 5.075403,140.029160 
	C5.770506,129.598862 7.178451,119.216789 7.909190,108.787979 
	C8.806165,95.986717 9.767377,83.160980 9.845486,70.340614 
	C9.906331,60.353809 8.695113,50.356438 7.971907,40.369358 
	C7.746744,37.259975 8.743170,35.556469 12.888780,36.169800 
	C14.571340,48.836960 15.488733,61.314152 16.406126,73.791344 
	C14.495612,96.069870 12.585098,118.348396 10.669120,140.690643 
	C27.942606,140.690643 44.530499,140.913788 61.109760,140.630890 
	C79.433357,140.318207 97.749031,139.541916 116.986237,138.920349 
	C120.892868,138.827301 123.882332,138.813629 126.869865,138.730789 
	C173.702072,137.432220 220.534012,136.124756 267.776550,134.923920 
	C276.077667,134.939011 283.968231,134.849518 292.332428,134.823929 
	C322.525269,135.288376 352.244507,135.688919 381.922729,136.423767 
	C380.880524,138.515396 379.879333,140.272720 378.420044,142.016968 
	C357.734528,141.669586 337.506683,141.040176 317.279907,141.072968 
	C289.729401,141.117630 262.178925,141.611954 234.630112,142.027283 
	C223.054352,142.201813 211.483719,142.694946 199.909454,142.993683 
	C185.840500,143.356781 171.769409,143.637772 157.700714,144.009628 
	C144.466507,144.359421 131.234222,144.781219 117.667328,145.119003 
	C116.886154,145.101883 116.438721,145.137085 115.991295,145.172302 
z"/>
<path fill="#D8C9C7" opacity="1.000000" stroke="none" 
	d="
M474.896912,24.528637 
	C452.402344,25.253218 429.759644,25.735865 407.114441,26.005131 
	C281.523773,27.498484 155.932465,28.940077 30.341368,30.397167 
	C29.342283,30.408754 28.342842,30.389542 26.930649,30.380287 
	C25.829041,26.922682 27.846441,26.629190 30.564013,26.605923 
	C46.883579,26.466190 63.201614,26.146036 79.521194,26.008640 
	C208.081299,24.926277 336.641541,23.861109 465.202362,22.869381 
	C468.380524,22.844864 471.565704,23.728247 474.896912,24.528637 
z"/>
<path fill="#0B0404" opacity="1.000000" stroke="none" 
	d="
M267.366028,134.819336 
	C220.534012,136.124756 173.702072,137.432220 126.869865,138.730789 
	C123.882332,138.813629 120.892868,138.827301 117.440247,138.803467 
	C116.844864,131.945450 111.444901,134.824829 107.874039,133.749878 
	C122.363823,133.090103 137.092880,132.510468 151.826538,132.093338 
	C227.946869,129.938202 304.068390,127.824699 380.884979,125.960335 
	C381.711151,127.804359 381.841797,129.384735 381.552582,131.081131 
	C351.431335,132.155304 321.729980,133.113464 291.560730,134.011261 
	C283.183929,134.240356 275.274963,134.529846 267.366028,134.819336 
z"/>
<path fill="#FD5555" opacity="1.000000" stroke="none" 
	d="
M259.014893,160.035202 
	C258.069794,160.333710 257.131683,160.866364 256.178497,160.894989 
	C244.916306,161.233032 233.644455,161.328323 222.390167,161.826935 
	C211.843826,162.294159 201.321304,163.282639 190.776917,163.817093 
	C184.823883,164.118820 178.842911,163.830109 172.883209,164.046738 
	C157.044312,164.622391 141.205856,165.240631 125.375633,166.013885 
	C115.489151,166.496796 105.617897,167.291489 95.328003,167.921707 
	C94.238380,166.840073 93.560562,165.783005 93.355400,164.356506 
	C105.088806,163.332275 116.345551,162.595673 127.611305,162.042740 
	C142.698196,161.302277 157.791702,160.696243 172.882980,160.046616 
	C196.434616,159.032791 219.986969,158.035751 243.538605,157.022034 
	C258.629944,156.372467 273.720093,155.695786 288.811523,155.048874 
	C312.529663,154.032196 336.248383,153.029739 359.966919,152.022522 
	C375.222870,151.374680 390.478912,150.729080 405.734894,150.082474 
	C405.389801,151.341080 405.044708,152.599701 404.348785,153.949219 
	C402.887543,154.351929 401.783508,154.908997 400.665771,154.937927 
	C388.242340,155.259628 375.809326,155.314911 363.394104,155.818085 
	C352.837189,156.245956 342.300110,157.164413 331.754364,157.866959 
	C331.256409,157.900116 330.759796,157.965347 330.261536,157.979935 
	C318.811432,158.314941 307.361206,158.644989 295.191193,158.643738 
	C282.652557,158.886078 270.833740,159.460648 259.014893,160.035202 
z"/>
<path fill="#FB3535" opacity="1.000000" stroke="none" 
	d="
M405.843994,149.725220 
	C390.478912,150.729080 375.222870,151.374680 359.966919,152.022522 
	C336.248383,153.029739 312.529663,154.032196 288.811523,155.048874 
	C273.720093,155.695786 258.629944,156.372467 243.538605,157.022034 
	C219.986969,158.035751 196.434616,159.032791 172.882980,160.046616 
	C157.791702,160.696243 142.698196,161.302277 127.611305,162.042740 
	C116.345551,162.595673 105.088806,163.332275 93.379372,163.997406 
	C91.058495,160.721268 92.506775,159.422241 95.792885,159.272385 
	C101.104424,159.030136 106.417183,158.814484 112.272690,158.295349 
	C113.065453,157.991074 113.313042,158.007706 113.868935,158.303635 
	C116.549080,158.398254 118.918991,158.242249 121.482712,158.054108 
	C121.676521,158.021973 122.068840,158.000443 122.068840,158.000443 
	C122.068840,158.000443 122.459206,158.045029 122.965652,158.029312 
	C133.412949,157.967270 143.355774,158.025421 153.293961,157.837540 
	C159.832489,157.713959 166.366837,157.279297 172.898285,156.901382 
	C177.496323,156.635315 182.086334,156.230484 187.172302,155.940491 
	C204.583710,155.355698 221.503464,154.737122 238.421539,154.075058 
	C256.339081,153.373886 274.255035,152.631363 292.607239,151.918488 
	C296.356354,151.606613 299.669922,151.283173 303.270630,151.208679 
	C305.832062,151.318359 308.104736,151.140259 310.380920,151.045959 
	C327.621704,150.331573 344.863159,149.633621 362.560730,148.959274 
	C367.524719,148.394943 372.032349,147.801865 376.835083,147.268555 
	C377.426605,147.095139 377.723022,146.861969 378.316772,146.783951 
	C381.758881,146.856476 384.903656,146.773834 388.048401,146.691177 
	C392.142303,146.615448 396.236237,146.539719 401.012939,146.434982 
	C402.168610,146.290741 402.641541,146.175507 403.114441,146.060272 
	C404.060669,147.162827 405.006897,148.265396 405.843994,149.725220 
z"/>
<path fill="#FC5454" opacity="1.000000" stroke="none" 
	d="
M96.984993,229.297424 
	C114.008896,228.315659 130.870880,227.603653 147.736099,226.978973 
	C158.313690,226.587219 168.901657,226.451065 179.475235,225.980927 
	C200.375641,225.051620 221.266006,223.895157 242.166931,222.979019 
	C255.225876,222.406647 268.297333,222.124405 281.361755,221.670868 
	C296.961761,221.129303 312.561737,220.582016 328.158936,219.966675 
	C343.733154,219.352219 359.312378,218.802155 374.873322,217.935059 
	C385.611206,217.336731 396.321716,216.247040 407.377197,215.215652 
	C408.063629,216.135010 408.417358,217.215652 408.332153,218.650513 
	C405.261353,219.321289 402.637115,219.812424 399.996460,219.927231 
	C375.786896,220.979843 351.574005,221.956131 327.363068,222.977554 
	C312.275208,223.614090 297.189850,224.309570 282.101898,224.943970 
	C257.724579,225.968964 233.345627,226.955780 208.968170,227.977463 
	C193.713974,228.616791 178.464722,229.390320 163.207001,229.925201 
	C140.799393,230.710739 118.386208,231.336761 95.975395,232.030731 
	C96.258408,231.221863 96.541428,230.413010 96.984993,229.297424 
z"/>
<path fill="#FF3434" opacity="1.000000" stroke="none" 
	d="
M95.807831,232.256088 
	C118.386208,231.336761 140.799393,230.710739 163.207001,229.925201 
	C178.464722,229.390320 193.713974,228.616791 208.968170,227.977463 
	C233.345627,226.955780 257.724579,225.968964 282.101898,224.943970 
	C297.189850,224.309570 312.275208,223.614090 327.363068,222.977554 
	C351.574005,221.956131 375.786896,220.979843 399.996460,219.927231 
	C402.637115,219.812424 405.261353,219.321289 408.314453,219.000153 
	C408.888031,219.750473 409.040375,220.505356 408.644623,221.640625 
	C397.167542,222.666779 386.244537,223.447449 375.308380,223.930939 
	C350.425507,225.030991 325.537964,226.032089 300.648712,226.978455 
	C288.527191,227.439331 276.396881,227.665985 264.272827,228.067932 
	C263.172028,228.104431 262.088043,228.648407 260.527832,228.958389 
	C250.602982,229.300674 241.144943,229.601974 231.690491,229.990906 
	C216.438171,230.618317 201.188644,231.313156 185.937180,231.961548 
	C169.854568,232.645294 153.773895,233.387970 137.687103,233.955597 
	C123.741096,234.447708 109.787712,234.731003 95.837593,235.106598 
	C95.771820,234.231537 95.706039,233.356491 95.807831,232.256088 
z"/>
<path fill="#FA3333" opacity="1.000000" stroke="none" 
	d="
M383.038879,130.963379 
	C402.933044,130.531784 422.827515,130.113739 442.721252,129.663239 
	C453.665771,129.415405 464.609100,129.112915 475.944763,129.352081 
	C476.270599,131.591263 476.204559,133.313385 476.138550,135.035522 
	C474.682739,136.025543 473.226959,137.015579 471.089478,137.785522 
	C468.267334,137.403137 466.128235,137.120819 463.986237,137.096786 
	C437.023621,136.794159 410.060577,136.528824 383.068115,135.812622 
	C383.038666,133.901993 383.038788,132.432678 383.038879,130.963379 
z"/>
<path fill="#DED2CF" opacity="1.000000" stroke="none" 
	d="
M383.097626,136.253967 
	C410.060577,136.528824 437.023621,136.794159 463.986237,137.096786 
	C466.128235,137.120819 468.267334,137.403137 470.743469,137.824829 
	C470.252136,142.493118 467.482361,143.164932 463.325073,143.116333 
	C442.443634,142.872284 421.557495,143.058411 400.673645,142.959351 
	C396.443665,142.939270 392.216400,142.341034 387.354736,141.760803 
	C385.513580,139.759491 384.305603,138.006729 383.097626,136.253967 
z"/>
<path fill="#FA3030" opacity="1.000000" stroke="none" 
	d="
M483.904236,52.250282 
	C483.228821,43.037525 482.576385,34.291882 481.882568,24.991308 
	C484.335358,24.991308 486.280273,24.985670 488.225098,24.992413 
	C493.165436,25.009542 494.805695,27.100594 493.957489,31.993406 
	C491.593445,45.629745 489.307861,59.279682 486.945068,72.916245 
	C486.852509,73.450562 486.285065,73.902580 485.432861,75.109711 
	C484.893768,67.091942 484.410522,59.904667 483.904236,52.250282 
z"/>
<path fill="#D6C8C6" opacity="1.000000" stroke="none" 
	d="
M18.608925,118.055115 
	C19.429111,120.019554 20.210253,122.186478 20.280235,124.376137 
	C20.439226,129.350815 22.595634,131.238037 27.712549,131.248337 
	C46.943993,131.287079 66.175117,131.689606 85.404892,132.037155 
	C87.327393,132.071899 89.239906,132.658890 91.573914,133.073654 
	C91.623810,133.422470 91.263519,133.908997 90.888939,133.920258 
	C66.478691,134.653702 42.067291,135.348663 16.791185,136.071762 
	C17.291048,129.958694 17.769024,124.113304 18.608925,118.055115 
z"/>
<path fill="#EB4C4C" opacity="1.000000" stroke="none" 
	d="
M95.860748,235.543823 
	C109.787712,234.731003 123.741096,234.447708 137.687103,233.955597 
	C153.773895,233.387970 169.854568,232.645294 185.937180,231.961548 
	C201.188644,231.313156 216.438171,230.618317 231.690491,229.990906 
	C241.144943,229.601974 250.602982,229.300674 260.527893,229.195358 
	C260.996399,229.430664 260.998016,229.903763 260.998016,229.903763 
	C237.884399,230.963181 214.772476,232.060944 191.656769,233.072525 
	C161.550537,234.390015 131.442139,235.659134 101.331413,236.867813 
	C99.530350,236.940094 97.700409,236.293259 95.860748,235.543823 
z"/>
<path fill="#E64949" opacity="1.000000" stroke="none" 
	d="
M261.457642,229.980331 
	C260.998016,229.903763 260.996399,229.430664 260.996338,229.193695 
	C262.088043,228.648407 263.172028,228.104431 264.272827,228.067932 
	C276.396881,227.665985 288.527191,227.439331 300.648712,226.978455 
	C325.537964,226.032089 350.425507,225.030991 375.308380,223.930939 
	C386.244537,223.447449 397.167542,222.666779 408.539398,222.019485 
	C407.529755,222.721664 406.100525,223.984573 404.621216,224.046219 
	C377.513702,225.175842 350.397186,226.088898 323.288910,227.201462 
	C302.827118,228.041229 282.374146,229.097168 261.457642,229.980331 
z"/>
<path fill="#F53636" opacity="1.000000" stroke="none" 
	d="
M16.563631,73.563042 
	C15.488733,61.314152 14.571340,48.836960 13.306479,36.106964 
	C13.061110,31.252323 15.876328,29.685698 20.591192,28.689096 
	C19.247923,44.185295 17.984529,58.760017 16.563631,73.563042 
z"/>
<path fill="#D6C8C6" opacity="1.000000" stroke="none" 
	d="
M478.173004,122.833687 
	C478.860321,116.770012 479.974457,110.785263 481.176575,104.602524 
	C481.790253,109.737457 482.500519,115.065514 482.641876,120.408615 
	C482.662994,121.207085 480.013733,122.076195 478.173004,122.833687 
z"/>
<path fill="#FB5F5F" opacity="1.000000" stroke="none" 
	d="
M383.068115,135.812622 
	C384.305603,138.006729 385.513580,139.759491 386.910339,141.783844 
	C387.397369,143.128113 387.695618,144.200790 387.625793,145.659958 
	C385.690247,144.056717 384.122742,142.066986 382.787476,140.372070 
	C380.927734,142.571365 379.452789,144.315628 377.992981,145.704132 
	C378.298157,144.242279 378.588135,143.136169 378.878143,142.030045 
	C379.879333,140.272720 380.880524,138.515396 381.945740,135.997009 
	C381.997314,133.812347 381.984894,132.388718 381.972443,130.965103 
	C381.841797,129.384735 381.711151,127.804359 381.358337,125.898453 
	C381.135193,124.903275 381.134125,124.233643 381.436401,123.168648 
	C382.135559,122.864441 382.531342,122.955605 382.927124,123.046753 
	C382.932556,123.753876 382.938019,124.461006 382.964050,125.520096 
	C382.991730,127.286575 382.998901,128.701080 383.022461,130.539490 
	C383.038788,132.432678 383.038666,133.901993 383.068115,135.812622 
z"/>
<path fill="#FD5555" opacity="1.000000" stroke="none" 
	d="
M113.558701,158.053024 
	C113.313042,158.007706 113.065453,157.991074 112.634415,158.037140 
	C113.632607,154.023010 114.812340,149.974869 115.991684,145.549500 
	C116.438721,145.137085 116.886154,145.101883 117.666412,145.487915 
	C119.485893,149.954453 120.972549,153.999741 122.459206,158.045029 
	C122.459206,158.045029 122.068840,158.000443 122.068840,158.000443 
	C122.068840,158.000443 121.676521,158.021973 121.314850,157.710510 
	C119.780258,155.144974 118.607338,152.890884 116.954445,149.714401 
	C115.462257,153.378632 114.510483,155.715820 113.558701,158.053024 
z"/>
<path fill="#DBD3D0" opacity="1.000000" stroke="none" 
	d="
M476.497375,135.017792 
	C476.204559,133.313385 476.270599,131.591263 476.440582,129.443848 
	C478.600494,128.837418 480.656433,128.656265 482.712372,128.475113 
	C483.005310,128.998856 483.298248,129.522583 483.591217,130.046310 
	C481.346222,131.697571 479.101196,133.348816 476.497375,135.017792 
z"/>
<path fill="#1A0909" opacity="1.000000" stroke="none" 
	d="
M377.977844,146.059875 
	C379.452789,144.315628 380.927734,142.571365 382.787476,140.372070 
	C384.122742,142.066986 385.690247,144.056717 387.621490,146.006973 
	C387.985229,145.967484 388.055573,146.325928 388.052002,146.508545 
	C384.903656,146.773834 381.758881,146.856476 378.283478,146.643280 
	C377.952820,146.347427 377.977844,146.059891 377.977844,146.059875 
z"/>
<path fill="#1A0909" opacity="1.000000" stroke="none" 
	d="
M402.880127,146.007507 
	C402.641541,146.175507 402.168610,146.290741 401.473206,146.296112 
	C401.715759,146.109100 402.180817,146.031921 402.880127,146.007507 
z"/>
<path fill="#040101" opacity="1.000000" stroke="none" 
	d="
M150.067871,85.856712 
	C150.764786,96.461960 151.367874,106.602325 152.162399,116.727669 
	C152.386749,119.586739 151.659607,121.246567 148.596481,121.346130 
	C148.432846,121.351448 148.271759,121.417473 148.108353,121.449493 
	C134.821014,124.052864 133.726852,123.206055 133.068100,109.884621 
	C132.913223,106.752853 132.700317,103.623962 132.500015,100.256859 
	C130.137833,100.256859 128.182114,100.172188 126.237137,100.280479 
	C124.261116,100.390495 122.295677,100.690811 119.702667,100.976395 
	C120.094223,106.948288 120.271477,112.732880 120.924034,118.463348 
	C121.323616,121.972343 119.928070,123.367943 116.720123,123.610367 
	C116.554886,123.622849 116.392303,123.668518 116.227974,123.695610 
	C103.244026,125.836685 102.653221,125.346245 101.824921,112.470314 
	C100.820107,96.850555 99.901520,81.222298 98.597878,65.626785 
	C98.272469,61.733860 99.860046,60.675762 103.083885,60.149483 
	C115.687042,58.092052 116.690346,58.822601 117.699257,71.418724 
	C117.976082,74.874809 118.133545,78.340462 118.356476,81.976044 
	C122.608147,81.976044 126.502838,81.976044 131.145187,81.976044 
	C130.756531,75.786621 130.670853,70.021072 129.949646,64.336159 
	C129.377792,59.828457 131.430038,58.300392 135.362640,58.092739 
	C151.145630,57.259350 147.970016,56.641781 148.991043,69.436211 
	C149.414856,74.747108 149.698975,80.069153 150.067871,85.856712 
z"/>
<path fill="#040101" opacity="1.000000" stroke="none" 
	d="
M383.394348,122.990082 
	C382.531342,122.955605 382.135559,122.864441 381.440674,122.834274 
	C375.066406,120.958855 373.796814,116.845352 377.083832,109.748238 
	C394.696838,111.448433 394.738556,111.437744 394.639008,104.810852 
	C392.049805,104.968140 389.465332,105.246048 386.879456,105.259888 
	C378.618927,105.304108 372.563843,101.426224 370.367371,93.503769 
	C368.976501,88.487122 368.249329,82.971069 368.725342,77.817650 
	C369.727539,66.968079 376.493439,60.490067 387.288727,58.780266 
	C389.738678,58.392223 392.261688,58.147686 394.731903,58.259644 
	C405.958374,58.768471 407.618744,60.256393 408.528046,71.262001 
	C409.459534,82.536659 410.152313,93.832161 410.849365,105.124725 
	C411.426483,114.474899 407.884308,119.656471 398.714111,121.691498 
	C393.908081,122.758041 388.821442,122.560226 383.394348,122.990082 
M385.887634,87.363472 
	C387.421173,91.200539 390.119110,91.898346 393.978729,90.516304 
	C393.524139,84.694221 393.091858,79.157555 392.655762,73.572418 
	C387.813995,72.928146 385.612762,75.225723 385.189301,79.201263 
	C384.932251,81.614746 385.463074,84.112152 385.887634,87.363472 
z"/>
<path fill="#050101" opacity="1.000000" stroke="none" 
	d="
M281.829956,96.127220 
	C285.060730,101.342110 288.106720,106.241989 291.751312,112.104767 
	C285.498657,112.477715 280.257996,113.007652 275.023529,112.952065 
	C273.689026,112.937889 271.913086,111.336540 271.132629,110.001175 
	C268.231079,105.036644 265.659912,99.879036 262.245880,95.085587 
	C262.589722,101.141281 262.933563,107.196976 263.328766,114.157310 
	C257.968964,114.554443 252.980652,114.924049 247.492523,115.330688 
	C246.699265,104.369858 245.937271,94.128647 245.222687,83.884125 
	C244.551102,74.255951 244.054855,64.613388 243.218384,55.000050 
	C242.923843,51.615299 243.839218,49.960785 247.344193,49.884911 
	C251.111435,49.803360 254.875107,49.557362 259.143372,49.359837 
	C259.957855,60.921242 260.723724,71.792458 261.489594,82.663666 
	C261.841583,82.760315 262.193604,82.856956 262.545624,82.953606 
	C264.175690,79.511063 266.193848,76.192421 267.342102,72.596046 
	C268.941620,67.586372 272.343414,65.998596 277.105835,66.054741 
	C279.920532,66.087929 282.735870,66.060806 286.597412,66.060806 
	C283.885193,71.283936 281.827301,76.151848 278.970856,80.494492 
	C276.087341,84.878265 276.007172,88.571007 279.501282,92.452255 
	C280.378113,93.426239 280.939087,94.684563 281.829956,96.127220 
z"/>
<path fill="#050101" opacity="1.000000" stroke="none" 
	d="
M337.546082,63.435524 
	C340.297974,62.611118 342.668549,61.724796 345.113312,61.404381 
	C353.789642,60.267262 359.710449,64.039116 360.932495,72.695419 
	C362.504028,83.827095 363.033722,95.105858 364.083374,107.137177 
	C359.197906,107.458214 354.951904,107.969536 350.725922,107.837921 
	C349.769531,107.808136 348.208557,105.612045 348.075470,104.296799 
	C347.322418,96.855331 346.969940,89.374352 346.367645,81.915993 
	C346.173737,79.514259 346.369873,76.405869 342.612885,76.720444 
	C339.135834,77.011581 338.158966,79.056274 338.511475,82.621628 
	C339.343079,91.033775 339.666229,99.496185 340.271606,109.161369 
	C335.400360,109.161369 330.968689,109.393669 326.599243,108.975708 
	C325.666382,108.886475 324.368347,106.486610 324.245483,105.064240 
	C323.517395,96.636299 323.085999,88.182709 322.532745,79.386650 
	C318.171417,79.757774 316.226318,77.160484 316.594757,73.719482 
	C316.957977,70.327225 317.642151,65.821205 319.928619,64.034790 
	C324.015533,60.841637 328.347595,64.058601 332.222046,66.681671 
	C333.875732,65.668701 335.537231,64.650940 337.546082,63.435524 
z"/>
<path fill="#050101" opacity="1.000000" stroke="none" 
	d="
M174.529938,89.663467 
	C176.283142,88.834587 177.611237,88.053398 178.939316,87.272217 
	C177.359467,86.506195 175.759552,85.069336 174.203995,85.115837 
	C171.104813,85.208481 168.030029,86.116234 164.464569,86.776245 
	C163.644470,84.940865 162.551086,83.087402 161.984467,81.084900 
	C161.162399,78.179604 161.847580,75.484909 165.238083,75.002876 
	C171.428589,74.122765 177.698517,72.989235 183.894394,73.194817 
	C189.694778,73.387268 193.063492,77.786652 193.988739,83.324821 
	C195.025436,89.530022 195.407852,95.844521 196.113388,102.472328 
	C200.006302,102.398140 203.058746,104.213066 202.530548,108.380585 
	C202.084045,111.903603 201.231354,116.676300 198.804214,118.346161 
	C195.039673,120.936165 190.568054,118.553467 187.675186,115.693985 
	C183.823410,117.359169 180.398758,119.520844 176.680893,120.322266 
	C164.369263,122.976166 154.225891,111.688309 157.917496,99.643745 
	C160.353867,91.694580 167.049561,90.323341 174.529938,89.663467 
M180.133743,104.218155 
	C180.013016,102.476768 179.892273,100.735382 179.771545,98.994003 
	C179.320114,98.665260 178.868668,98.336517 178.417236,98.007774 
	C176.688263,99.335075 174.454971,100.367584 173.436417,102.110138 
	C172.901993,103.024467 174.128525,106.093727 175.226776,106.536827 
	C176.454178,107.032036 178.437103,105.654587 180.133743,104.218155 
z"/>
<path fill="#050101" opacity="1.000000" stroke="none" 
	d="
M219.667847,70.370087 
	C224.649017,70.206207 229.389313,69.534012 233.810852,70.431763 
	C236.118027,70.900200 239.455582,74.085396 239.515991,76.126740 
	C239.625366,79.821144 237.723358,83.614853 236.314651,87.232170 
	C236.211823,87.496254 233.038635,87.097649 231.759338,86.278618 
	C226.127487,82.673004 222.640610,84.220436 222.096558,90.807541 
	C221.245514,101.111526 225.936996,104.115601 237.914185,100.037025 
	C238.828796,103.696053 240.110306,107.263199 240.419174,110.912659 
	C240.525909,112.173645 238.482605,114.236275 236.965103,114.920052 
	C220.099854,122.519424 204.682510,111.403793 205.291794,92.019440 
	C205.601486,82.166870 209.314972,74.220985 219.667847,70.370087 
z"/>
<path fill="#050101" opacity="1.000000" stroke="none" 
	d="
M309.473083,65.396469 
	C310.846466,80.442635 311.885284,95.165649 312.979218,110.669891 
	C307.204346,111.050850 301.858276,111.403519 296.161774,111.779305 
	C295.100830,96.159851 294.091461,81.299232 292.989349,65.073311 
	C298.681396,65.073311 303.909943,65.073311 309.473083,65.396469 
z"/>
<path fill="#070101" opacity="1.000000" stroke="none" 
	d="
M303.884918,45.935757 
	C307.324585,45.503593 309.164246,46.253250 308.949341,49.797756 
	C308.759338,52.931728 308.909546,56.086327 308.909546,60.026360 
	C303.916229,60.431801 298.721008,60.853638 292.879639,61.327938 
	C292.498077,56.437119 292.157318,52.069149 291.762360,47.006363 
	C295.941833,46.627476 299.679565,46.288635 303.884918,45.935757 
z"/>
<path fill="#070404" opacity="1.000000" stroke="none" 
	d="
M252.258698,181.631073 
	C253.443954,187.323776 254.533981,192.596542 255.623993,197.869293 
	C255.957230,197.904083 256.290436,197.938873 256.623688,197.973663 
	C257.649994,192.579895 258.941193,187.218658 259.609192,181.780869 
	C260.052917,178.169037 262.297302,178.307007 264.837860,178.015976 
	C267.577301,177.702179 269.087769,178.471252 269.852600,181.315216 
	C271.137451,186.092911 272.807678,190.766968 275.344879,195.454361 
	C275.604492,191.430344 276.270996,187.380875 276.021515,183.388657 
	C275.704041,178.308807 277.642609,176.345825 282.592285,176.921478 
	C284.197510,177.108154 285.842773,176.950760 287.884430,176.950760 
	C286.520569,187.427521 285.277039,197.439850 283.821564,207.421280 
	C283.682037,208.378036 282.343628,209.354874 281.337280,209.928543 
	C280.536652,210.384933 279.392883,210.238617 278.401672,210.361572 
	C269.824432,211.425293 269.845520,211.419495 267.581909,203.364960 
	C267.146027,201.813934 266.472839,200.329590 265.485352,197.675400 
	C264.877472,200.935593 264.650452,203.104874 264.039795,205.160156 
	C263.430298,207.211609 262.759216,210.601532 261.551971,210.869751 
	C257.587006,211.750610 253.366592,211.540268 249.243469,211.559341 
	C248.834290,211.561249 248.228775,210.313049 248.035522,209.562408 
	C245.553909,199.922745 243.130829,190.268051 240.472229,179.743607 
	C244.732391,180.310562 248.706940,176.392853 252.258698,181.631073 
z"/>
<path fill="#060404" opacity="1.000000" stroke="none" 
	d="
M315.376221,174.974792 
	C319.593994,176.149582 321.654053,178.899384 322.072784,182.624863 
	C322.960876,190.526184 323.564026,198.459518 324.334442,206.934387 
	C320.394775,207.270706 317.034790,207.557526 313.164337,207.887924 
	C312.730927,201.884567 312.546387,196.434036 311.837372,191.052612 
	C311.583527,189.125854 310.132996,185.849854 309.107605,185.802322 
	C305.410980,185.631027 306.093201,188.775177 306.266144,191.250122 
	C306.646942,196.700394 307.014465,202.151596 307.423645,208.131821 
	C303.592346,208.314835 300.200134,208.476883 296.392303,208.658768 
	C295.923126,202.510590 295.654236,196.906082 294.968628,191.353012 
	C294.778931,189.816650 292.955719,188.528732 292.575531,186.958862 
	C291.888916,184.123718 290.917938,180.971802 291.547424,178.301453 
	C292.328491,174.988312 295.933807,175.111694 298.190857,176.506744 
	C301.098633,178.304016 303.014862,177.467041 305.764038,176.265518 
	C308.503784,175.068115 311.870636,175.305588 315.376221,174.974792 
z"/>
<path fill="#050303" opacity="1.000000" stroke="none" 
	d="
M223.286896,180.580719 
	C230.201263,180.319519 235.185699,183.022552 237.497787,189.117416 
	C240.125809,196.045074 240.656464,203.188782 235.635605,209.467621 
	C231.202988,215.010818 221.265900,216.159088 215.682755,211.642929 
	C209.261978,206.449249 208.354340,199.285583 209.907700,191.698776 
	C211.251846,185.133881 215.359924,181.804520 223.286896,180.580719 
M221.291260,200.824188 
	C222.917847,201.487183 224.544449,202.150162 226.171036,202.813156 
	C226.770752,200.690475 228.081436,198.453110 227.762985,196.478516 
	C227.465912,194.636444 225.437363,193.073639 224.170975,191.387894 
	C223.025391,193.104492 221.665939,194.724121 220.824997,196.578827 
	C220.408035,197.498428 220.944580,198.850357 221.291260,200.824188 
z"/>
<path fill="#080404" opacity="1.000000" stroke="none" 
	d="
M203.470276,191.880524 
	C202.496643,192.908661 201.501602,193.913895 201.538757,194.879410 
	C201.743134,200.192108 201.881760,205.542923 202.670013,210.786392 
	C203.308807,215.035751 201.582336,216.175858 197.863342,216.028519 
	C195.727722,215.943924 193.585999,216.013184 190.993927,216.013184 
	C190.417374,208.308334 189.864319,200.917557 189.311249,193.526764 
	C188.793686,193.731598 188.276123,193.936432 187.758575,194.141266 
	C186.619751,192.129623 184.758514,190.183914 184.567078,188.085831 
	C184.409439,186.358215 186.231461,184.449966 187.714661,182.853271 
	C188.606522,176.267822 190.335098,175.200562 198.880646,176.729355 
	C199.241135,178.580826 199.616745,180.509949 200.031143,182.638245 
	C201.857986,182.723633 203.639175,182.806885 205.879990,182.911621 
	C205.725769,186.084229 209.746033,189.790939 203.470276,191.880524 
z"/>
<path fill="#843C3C" opacity="1.000000" stroke="none" 
	d="
M259.261719,160.368591 
	C270.833740,159.460648 282.652557,158.886078 294.724213,158.633026 
	C283.154205,159.537018 271.331360,160.119492 259.261719,160.368591 
z"/>
<path fill="#050202" opacity="1.000000" stroke="none" 
	d="
M377.993011,145.704147 
	C377.977844,146.059891 377.952820,146.347427 377.986145,146.488098 
	C377.723022,146.861969 377.426605,147.095139 376.331665,147.194336 
	C371.012146,147.398254 366.491089,147.736145 361.512421,148.032227 
	C352.275787,148.355469 343.493164,148.649658 334.718781,149.103806 
	C324.136688,149.651535 313.561615,150.335007 302.983521,150.959717 
	C299.669922,151.283173 296.356354,151.606613 292.352661,151.563416 
	C264.776337,152.282288 237.888611,153.333664 211.004669,154.474075 
	C202.891022,154.818268 194.787888,155.409515 186.679932,155.887604 
	C182.086334,156.230484 177.496323,156.635315 172.898285,156.901382 
	C166.366837,157.279297 159.832489,157.713959 153.293961,157.837540 
	C143.355774,158.025421 133.412949,157.967270 122.965652,158.029312 
	C120.972549,153.999741 119.485893,149.954453 118.000168,145.540253 
	C131.234222,144.781219 144.466507,144.359421 157.700714,144.009628 
	C171.769409,143.637772 185.840500,143.356781 199.909454,142.993683 
	C211.483719,142.694946 223.054352,142.201813 234.630112,142.027283 
	C262.178925,141.611954 289.729401,141.117630 317.279907,141.072968 
	C337.506683,141.040176 357.734528,141.669586 378.420044,142.016968 
	C378.588135,143.136169 378.298157,144.242279 377.993011,145.704147 
z"/>
<path fill="#F23535" opacity="1.000000" stroke="none" 
	d="
M381.552582,131.081131 
	C381.984894,132.388718 381.997314,133.812347 381.986755,135.662720 
	C352.244507,135.688919 322.525269,135.288376 292.387024,134.654480 
	C291.967987,134.421143 292.028595,134.071625 292.028595,134.071625 
	C321.729980,133.113464 351.431335,132.155304 381.552582,131.081131 
z"/>
<path fill="#CA4847" opacity="1.000000" stroke="none" 
	d="
M291.560730,134.011261 
	C292.028595,134.071625 291.967987,134.421143 291.913391,134.590576 
	C283.968231,134.849518 276.077667,134.939011 267.776550,134.923920 
	C275.274963,134.529846 283.183929,134.240356 291.560730,134.011261 
z"/>
<path fill="#E14646" opacity="1.000000" stroke="none" 
	d="
M187.172302,155.940491 
	C194.787888,155.409515 202.891022,154.818268 211.004669,154.474075 
	C237.888611,153.333664 264.776337,152.282288 291.917145,151.551819 
	C274.255035,152.631363 256.339081,153.373886 238.421539,154.075058 
	C221.503464,154.737122 204.583710,155.355698 187.172302,155.940491 
z"/>
<path fill="#E14646" opacity="1.000000" stroke="none" 
	d="
M303.270630,151.208679 
	C313.561615,150.335007 324.136688,149.651535 334.718781,149.103806 
	C343.493164,148.649658 352.275787,148.355469 361.536987,148.247772 
	C362.019226,148.505112 362.104401,148.930542 362.104401,148.930542 
	C344.863159,149.633621 327.621704,150.331573 310.380920,151.045959 
	C308.104736,151.140259 305.832062,151.318359 303.270630,151.208679 
z"/>
<path fill="#1A0909" opacity="1.000000" stroke="none" 
	d="
M113.868935,158.303635 
	C114.510483,155.715820 115.462257,153.378632 116.954445,149.714401 
	C118.607338,152.890884 119.780258,155.144974 121.121033,157.742645 
	C118.918991,158.242249 116.549080,158.398254 113.868935,158.303635 
z"/>
<path fill="#1A0909" opacity="1.000000" stroke="none" 
	d="
M362.560730,148.959274 
	C362.104401,148.930542 362.019226,148.505112 361.994629,148.289581 
	C366.491089,147.736145 371.012146,147.398254 376.036591,147.134583 
	C372.032349,147.801865 367.524719,148.394943 362.560730,148.959274 
z"/>
<path fill="#F22E2E" opacity="1.000000" stroke="none" 
	d="
M385.763794,86.967667 
	C385.463074,84.112152 384.932251,81.614746 385.189301,79.201263 
	C385.612762,75.225723 387.813995,72.928146 392.655762,73.572418 
	C393.091858,79.157555 393.524139,84.694221 393.978729,90.516304 
	C390.119110,91.898346 387.421173,91.200539 385.763794,86.967667 
z"/>
<path fill="#FA3030" opacity="1.000000" stroke="none" 
	d="
M180.112488,104.655136 
	C178.437103,105.654587 176.454178,107.032036 175.226776,106.536827 
	C174.128525,106.093727 172.901993,103.024467 173.436417,102.110138 
	C174.454971,100.367584 176.688263,99.335075 178.417236,98.007774 
	C178.868668,98.336517 179.320114,98.665260 179.771545,98.994003 
	C179.892273,100.735382 180.013016,102.476768 180.112488,104.655136 
z"/>
<path fill="#EA8080" opacity="1.000000" stroke="none" 
	d="
M221.170502,200.415436 
	C220.944580,198.850357 220.408035,197.498428 220.824997,196.578827 
	C221.665939,194.724121 223.025391,193.104492 224.170975,191.387894 
	C225.437363,193.073639 227.465912,194.636444 227.762985,196.478516 
	C228.081436,198.453110 226.770752,200.690475 226.171036,202.813156 
	C224.544449,202.150162 222.917847,201.487183 221.170502,200.415436 
z"/>
</svg>